<svg width="8" height="202" viewBox="0 0 8 202" fill="none" xmlns="http://www.w3.org/2000/svg">
<path id="Line 11" d="M4.35355 0.646447C4.15829 0.451184 3.84171 0.451184 3.64645 0.646447L0.464466 3.82843C0.269204 4.02369 0.269204 4.34027 0.464466 4.53553C0.659728 4.7308 0.976311 4.7308 1.17157 4.53553L4 1.70711L6.82843 4.53553C7.02369 4.7308 7.34027 4.7308 7.53553 4.53553C7.7308 4.34027 7.7308 4.02369 7.53553 3.82843L4.35355 0.646447ZM3.64646 201.354C3.84172 201.549 4.1583 201.549 4.35356 201.354L7.53554 198.172C7.7308 197.976 7.7308 197.66 7.53554 197.464C7.34028 197.269 7.0237 197.269 6.82844 197.464L4.00001 200.293L1.17158 197.464C0.976319 197.269 0.659737 197.269 0.464475 197.464C0.269212 197.66 0.269213 197.976 0.464475 198.172L3.64646 201.354ZM3.5 1L3.50001 201L4.50001 201L4.5 1L3.5 1Z" fill="#303030"/>
</svg>
