<svg width="119" height="22" viewBox="0 0 119 22" fill="none" xmlns="http://www.w3.org/2000/svg">
<g id="Group 24">
<path id="Star 1" d="M11.5 0L13.9697 7.60081H21.9616L15.496 12.2984L17.9656 19.8992L11.5 15.2016L5.03436 19.8992L7.50402 12.2984L1.03838 7.60081H9.03035L11.5 0Z" fill="#05FF00"/>
<path id="Star 2" d="M35.5 0L37.9697 7.60081H45.9616L39.496 12.2984L41.9656 19.8992L35.5 15.2016L29.0344 19.8992L31.504 12.2984L25.0384 7.60081H33.0303L35.5 0Z" fill="#05FF00"/>
<path id="Star 3" d="M59.5 0L61.9697 7.60081H69.9616L63.496 12.2984L65.9656 19.8992L59.5 15.2016L53.0344 19.8992L55.504 12.2984L49.0384 7.60081H57.0303L59.5 0Z" fill="#05FF00"/>
<path id="Star 4" d="M83.5 0L85.9697 7.60081H93.9616L87.496 12.2984L89.9656 19.8992L83.5 15.2016L77.0344 19.8992L79.504 12.2984L73.0384 7.60081H81.0303L83.5 0Z" fill="#05FF00"/>
<path id="Star 5" d="M107.5 0L109.97 7.60081H117.962L111.496 12.2984L113.966 19.8992L107.5 15.2016L101.034 19.8992L103.504 12.2984L97.0384 7.60081H105.03L107.5 0Z" fill="#D9D9D9"/>
</g>
</svg>
